<svg width="1920" height="920" version="1.1" viewBox="0 0 508 243.42" xmlns="http://www.w3.org/2000/svg">
 <g transform="translate(0 33.417)">
  <rect transform="matrix(1 0 -.0029242 1 0 0)" x="-1.701" y="-34.412" width="512.96" height="245.19" fill="#202020" fill-opacity=".98507" stroke-width=".36509"/>
 </g>
 <g transform="translate(0 33.417)" fill="#a8ada9" fill-rule="evenodd" stroke="#a8ada9">
  <path d="m243.92-1.6784-23.885 27.213" stroke-width=".19578px"/>
  <path d="m387.17 2.1377-24.266 27.647" stroke-width=".1989px"/>
  <path d="m439.11 106.04-39.267 44.739" stroke-width=".32186px"/>
  <path d="m228.65 168.84-36.069 39.507" stroke-width=".28988px"/>
  <path d="m333.42 170.61-24.266 27.647" stroke-width=".1989px"/>
  <g stroke-width=".28988px">
   <path d="m45.982 17.558-36.069 39.507"/>
   <path d="m126.99 114.28-36.069 39.507"/>
   <path d="m29.973 144.41-36.069 39.507"/>
  </g>
  <path d="m483.96 17.517-26.088 28.574" stroke-width=".20966px"/>
  <path d="m489.98 167.6-26.088 28.574" stroke-width=".20966px"/>
 </g>
 <g transform="translate(0 -42.333)">
  <rect x="145.8" y="96.462" width="267.09" height="154.16" fill="#202020" stroke-linejoin="round" stroke="#6c63ff" stroke-width="1.5"/>
 </g>
 <g transform="translate(0 -53.583)">
  <g transform="matrix(.97304 0 0 .97304 -73.3 -9.2803)">
   <g stroke-width=".26458">
    <ellipse transform="scale(-1,1)" cx="-156.8" cy="300.68" rx="38.211" ry="4.9587" fill="#3f3d56"/>
    <path d="m168.43 123.39s1.0796 8.0197-1.6965 8.945c-2.776 0.92535-2.0049 8.0197-2.0049 8.0197l8.3281 6.3232 7.4028 0.6169 1.8507-9.5619-1.0796-2.4676s-4.1641-4.9352-1.2338-10.025c2.9303-5.0894-11.567-1.8507-11.567-1.8507z" fill="#ffb9b9"/>
    <path d="m168.43 123.39s1.0796 8.0197-1.6965 8.945c-2.776 0.92535-2.0049 8.0197-2.0049 8.0197l8.3281 6.3232 7.4028 0.6169 1.8507-9.5619-1.0796-2.4676s-4.1641-4.9352-1.2338-10.025c2.9303-5.0894-11.567-1.8507-11.567-1.8507z" opacity=".1"/>
    <path d="m176.14 185.85 9.7162 22.825s7.557-4.3183 12.03-3.8556c4.4725 0.46267 10.025-4.9352 10.025-4.9352l-5.5521-26.835-10.333-28.532-14.343 9.0993z" fill="#575a89"/>
    <path d="m176.14 185.85 9.7162 22.825s7.557-4.3183 12.03-3.8556c4.4725 0.46267 10.025-4.9352 10.025-4.9352l-5.5521-26.835-10.333-28.532-14.343 9.0993z" opacity=".1"/>
   </g>
   <polygon transform="matrix(-.26458 0 0 .26458 414.92 86.084)" points="960.19 771.69 933.96 771.69 938.04 739.04 960.19 743.71" fill="#575a89"/>
   <polygon transform="matrix(-.26458 0 0 .26458 414.92 86.084)" points="1028.4 695.33 1047.6 706.99 1033.6 739.04 1019.1 737.3 1005.1 717.48" fill="#575a89"/>
   <g fill="#2f2e41" stroke-width=".26458">
    <path d="m159.48 183.69-9.0993 21.437s3.2387 23.751 3.0845 25.756c-0.15423 2.0049-0.30845 2.776 0.46267 4.4725s1.0796 2.776 0.6169 4.781c-0.46268 2.0049-0.6169 2.776-0.30845 3.5472s2.4676 32.541 3.5472 34.701c1.0796 2.1592-0.6169 5.7063 0.46267 6.0148 1.0796 0.30846 9.0993-0.46267 9.5619-2.3134 0.46268-1.8507-1.5422-6.3232-0.46267-7.7112s-0.15423-51.357 1.388-54.75 18.507-6.4774 18.507-6.4774 1.5423-9.8704 0.6169-11.413c-0.92536-1.5422-2.1591-11.258-2.1591-11.258z"/>
    <path d="m168.43 289.03s-4.3183-5.0894-8.0197 0c0 0-0.30845 6.0148-2.9303 7.2486-2.6218 1.2338-1.388 6.169 2.3134 6.3232 3.7014 0.15422 8.4824 0.77112 8.6366-1.2338 0.15422-2.0049-0.6169-3.2387 0.77112-3.8556 1.388-0.61689 0-4.1641 0-4.1641z"/>
    <path d="m167.96 215.31s0.15423 11.104 1.2338 12.646 1.6965 2.4676 1.0796 4.1641-1.5423 4.781-1.0796 5.3979-0.46267 3.8556-0.46267 3.8556-11.875 5.7063-17.427 17.582c0 0-5.7063 9.4077-7.4028 9.5619-1.6965 0.15423-3.7014-1.0796-2.776 2.4676 0.92534 3.5472 4.4725 8.1739 7.0943 7.7112s4.6267-4.9352 4.6267-4.9352 20.512-20.82 22.671-21.437c2.1591-0.61691 8.3281-5.5521 9.4077-8.6366 1.0796-3.0845 3.3929-28.84 2.3134-30.536s-5.0894-4.0098-5.0894-4.0098z"/>
    <path d="m141.28 269.44s-9.5619 0.30845-9.7162 2.6218 4.0098 16.039 3.3929 19.278c-0.61689 3.2387 4.781 10.642 8.3281 9.0992 3.5472-1.5422 0.77113-9.5619 0.77113-9.5619s3.5472-10.95 2.9303-11.104c-0.6169-0.15422-6.7859-2.0049-6.4774-3.8556 0.30845-1.8507 0.77113-6.4774 0.77113-6.4774z"/>
   </g>
   <g stroke-width=".26458">
    <circle transform="scale(-1,1)" cx="-175.6" cy="122.08" r="9.5619" fill="#ffb9b9"/>
    <path d="m165.96 136.81s5.2436 5.5521 9.0993 4.6267c3.8556-0.92534 5.8605-7.557 5.8605-7.557l6.9401-1.2338s4.9352 21.9 4.9352 24.059c0 2.1591-4.9352 25.447-4.9352 29.611 0 4.1641 4.0098 6.6317-2.1592 6.4774-6.169-0.15422-3.2387-2.1591-12.184-2.3134-8.945-0.15422-10.333 1.8507-12.184-1.388a25.803 25.803 0 0 0-4.6267-5.7063l3.2387-11.413 0.46269-32.233s3.954-7.7112 5.7555-7.0943c-1e-5 0-0.97456 3.3929-0.20344 4.1641z" fill="#6c63ff"/>
    <path d="m167.86 131.28s-8.2228 0.90136-10.536 2.5978c-2.3134 1.6965-8.7908 2.9303-8.6366 4.1641 0.15423 1.2338 7.557 18.815 7.557 18.815s3.3929 13.88 0.46267 17.119-13.88 38.556-12.03 41.486c1.8507 2.9303 7.7112-8.945 7.7112-8.945s7.8655-25.447 12.184-29.765 4.6267-27.606 4.6267-28.686-1.3391-16.787-1.3391-16.787z" fill="#575a89"/>
    <path d="m179.89 133.07s10.132-3.8177 13.679-2.2754c3.5472 1.5423 5.7063 1.8507 5.7063 1.8507l1.2338 15.114s0.46268 21.746 4.4725 26.989c4.0099 5.2436 6.6317 27.144 6.0148 29.303-0.61687 2.1591 1.0796 5.8605-1.5422 4.9352-2.6218-0.92535-9.8704-22.208-9.8704-22.208s0-12.184-4.3183-15.577c-4.3183-3.3929-11.413-17.427-11.721-20.82s-3.2387-12.801-3.2387-12.801z" fill="#575a89"/>
    <path d="m145.14 181.68s4.6267 8.6366 5.2436 10.179c0.6169 1.5422 4.9352 12.03 11.104 9.7162 6.169-2.3134-6.0148-13.572-6.0148-13.572l-2.776-9.4077s-7.2486-1.5422-7.557 3.0845z" fill="#ffb9b9"/>
    <path d="m197.73 132.64h1.5423s1.5422-1.2338 3.393-0.46268c1.8507 0.77113 6.169-0.30845 6.169 0.15423 0 0.46267 4.781-1.388 6.7859-0.46268 2.0049 0.92535 9.2535 1.2338 9.2535 1.2338s2.9303 7.4028 0.92535 8.7908c-2.0049 1.388-4.9352 0.30845-6.3232 1.388-1.388 1.0796-4.0098-0.15422-4.9352 1.2338-0.92535 1.388-4.3183 3.8556-5.0894 2.3134-0.77112-1.5422 0.77113-2.9303-2.4676-1.2338-3.2387 1.6965-8.3282 1.6965-8.3282 1.6965z" fill="#575a89"/>
    <path d="m174.74 115.01c1.2939-0.29898 2.6371 0.0323 3.9477 0.24711 1.3105 0.21477 2.7548 0.28557 3.8634-0.44564 0.8187-0.54002 1.322-1.4334 1.7947-2.2927a2.6388 2.6388 0 0 0 0.38605-1.0116c0.0557-0.63555-0.34863-1.2154-0.77795-1.6873-1.9942-2.192-4.9083-3.3918-7.8471-3.7729-2.4158-0.31327-4.9344-0.10348-7.1652 0.87498-2.2309 0.97845-4.1486 2.7703-5.0256 5.0429a14.321 14.321 0 0 0-0.75058 3.6012 10.757 10.757 0 0 0-0.0506 2.7273 11.691 11.691 0 0 0 0.52853 1.9759l1.4529 4.387a2.8904 2.8904 0 0 0 0.57129 1.1308 0.98836 0.98836 0 0 0 1.1574 0.25357 3.6019 3.6019 0 0 1-0.0521-1.4553 1.228 1.228 0 0 1 0.96894-0.97716c0.53552-0.0568 0.99298 0.3583 1.501 0.53708a1.8465 1.8465 0 0 0 2.3312-1.3877c0.0802-0.50155-0.0545-1.0385 0.13565-1.5095 0.22274-0.55183 0.81338-0.84098 1.2571-1.2375a2.8936 2.8936 0 0 0 0.79395-3.0072c-0.1188-0.36511-0.45429-0.53108-0.38717-0.9505 0.0881-0.55026 0.89931-0.93496 1.3666-1.0429z" fill="#2f2e41"/>
    <path d="m223.28 133.1c-2.8121 0.12227-4.9016 2.6725-4.5974 5.4708 0.27559 2.5352 1.2922 5.6898 4.4946 6.9015 5.7063 2.1591 5.3979-10.025 4.3183-10.487-0.71972-0.30844-1.8507-1.9878-4.2155-1.885z" fill="#ffb9b9"/>
    <path d="m150.38 137.22-1.6965 0.82395s-3.7014 7.557-3.8556 8.6366c-0.15422 1.0796-2.6218 5.0894-1.6965 6.169 0.92535 1.0796 2.3134 3.8556 1.388 4.9352-0.92534 1.0796-3.0845 5.3979-3.0845 6.9401 0 1.5422 2.3134 5.7063 0.77112 6.169-1.5422 0.46267-1.0796 6.4774-0.77112 6.9401 0.30845 0.46268 4.3183 8.0197 4.3183 8.0197s0.77112-8.6366 8.3281-5.0894c0 0 0.6169-4.3183 0-4.6267s-2.1591-2.1592-0.92534-2.4676 2.9303-4.0098 2.6218-4.4725c-0.30844-0.46268-1.0796-1.0796-0.30845-1.5423 0.77112-0.46268 1.388-3.0845 1.2338-3.5472-0.15422-0.46267 1.6965-2.6218 1.6965-2.6218z" fill="#575a89"/>
   </g>
  </g>
 </g>
</svg>
